<?xml version="1.0" encoding="iso-8859-1"?>
<!-- Uploaded to: SVG Repo, www.svgrepo.com, Generator: SVG Repo Mixer Tools -->
<!DOCTYPE svg PUBLIC "-//W3C//DTD SVG 1.1//EN" "http://www.w3.org/Graphics/SVG/1.1/DTD/svg11.dtd">
<svg fill="#000000" height="800px" width="800px" version="1.1" id="Capa_1" xmlns="http://www.w3.org/2000/svg" xmlns:xlink="http://www.w3.org/1999/xlink" 
	 viewBox="0 0 297 297" xml:space="preserve">
<g>
	<path d="M145.104,35.435c2.139-1.069,4.652-1.069,6.791,0l4.195,2.099V19.927c0-4.192-3.398-7.591-7.591-7.591
		s-7.591,3.399-7.591,7.591v17.607L145.104,35.435z"/>
	<path d="M266.161,146.602v-34.16H30.839v34.16c0,7.325,5.959,13.284,13.284,13.284c7.325,0,13.284-5.959,13.284-13.284
		c0-4.192,3.399-7.591,7.591-7.591c4.192,0,7.592,3.398,7.592,7.591c0,7.325,5.959,13.284,13.284,13.284
		c7.325,0,13.284-5.959,13.284-13.284c0-4.192,3.398-7.591,7.591-7.591c4.192,0,7.591,3.398,7.591,7.591
		c0,7.325,5.96,13.284,13.285,13.284s13.284-5.959,13.284-13.284c0-4.192,3.398-7.591,7.591-7.591s7.591,3.398,7.591,7.591
		c0,7.325,5.959,13.284,13.284,13.284s13.285-5.959,13.285-13.284c0-4.192,3.398-7.591,7.591-7.591c4.191,0,7.591,3.398,7.591,7.591
		c0,7.325,5.959,13.284,13.284,13.284c7.325,0,13.284-5.959,13.284-13.284c0-4.192,3.399-7.591,7.592-7.591
		c4.191,0,7.591,3.398,7.591,7.591c0,7.325,5.959,13.284,13.284,13.284C260.202,159.887,266.161,153.928,266.161,146.602z"/>
	<path d="M59.876,95.024c-2.459,1.229-2.222,2.236,0.528,2.236h176.191c2.75,0,2.987-1.007,0.528-2.236l-84.152-42.075
		c-2.459-1.23-6.484-1.23-8.943,0L59.876,95.024z"/>
	<path d="M294.776,271.705c-24.62-24.619-28.405-83.113-28.984-99.747c-3.88,1.983-8.267,3.11-12.915,3.11
		c-7.453,0-14.24-2.887-19.321-7.591h-3.108c-5.08,4.704-11.868,7.591-19.321,7.591c-7.453,0-14.24-2.887-19.321-7.591h-3.108
		c-5.08,4.704-11.868,7.591-19.321,7.591c-4.571,0-8.895-1.088-12.727-3.012c0.531,17.764,4.467,81.397,33.454,110.385
		c1.424,1.424,3.354,2.223,5.368,2.223h93.939c3.069,0,5.838-1.85,7.013-4.686C297.597,277.142,296.947,273.877,294.776,271.705z"/>
	<path d="M127.625,175.068c-7.453,0-14.241-2.887-19.322-7.591h-3.107c-5.081,4.704-11.868,7.591-19.321,7.591
		c-7.453,0-14.241-2.887-19.321-7.591h-3.108c-5.081,4.704-11.868,7.591-19.321,7.591c-4.647,0-9.033-1.127-12.912-3.109
		c-0.569,16.629-4.327,75.086-28.987,99.746c-2.171,2.172-2.82,5.438-1.645,8.273c1.175,2.836,3.943,4.686,7.013,4.686h93.939
		c2.014,0,3.944-0.799,5.368-2.223c28.987-28.987,32.923-92.621,33.453-110.385C136.519,173.98,132.196,175.068,127.625,175.068z"/>
</g>
</svg>