<?xml version="1.0" encoding="utf-8"?>

<!-- Uploaded to: SVG Repo, www.svgrepo.com, Generator: SVG Repo Mixer Tools -->
<svg version="1.1" id="Icons" xmlns="http://www.w3.org/2000/svg" xmlns:xlink="http://www.w3.org/1999/xlink" 
	 viewBox="0 0 32 32" xml:space="preserve">
<style type="text/css">
	.st0{fill:none;stroke:#000000;stroke-width:2;stroke-linecap:round;stroke-linejoin:round;stroke-miterlimit:10;}
</style>
<g>
	<path d="M16,24.4c-2.5,0-5-0.5-7.4-1.5c-0.5-0.2-0.7-0.8-0.5-1.3l1.4-3.8c1.7-4.5,2-9.4,0.9-14.2L10,2.2c-0.1-0.4,0.1-0.8,0.5-1.1
		c0.4-0.2,0.8-0.2,1.2,0.1l2.5,2c5.6,4.6,9.3,11.4,9.9,18.7c0,0.4-0.2,0.8-0.6,1C21,23.9,18.5,24.4,16,24.4z"/>
</g>
<path d="M25.7,19.6c0.1,0.7,0.2,1.4,0.3,2.1c0.1,1.3-0.6,2.5-1.8,3c-2.6,1.1-5.3,1.7-8.2,1.7s-5.6-0.6-8.2-1.7
	c-1.5-0.6-2.2-2.3-1.6-3.8l0.6-1.6C3.7,20.5,2,22.1,2,24c0,3.9,7.2,6,14,6s14-2.1,14-6C30,22.2,28.5,20.7,25.7,19.6z"/>
</svg>