<?xml version="1.0" encoding="iso-8859-1"?>
<svg fill="#000000" height="800px" width="800px" version="1.1" id="Capa_1" xmlns="http://www.w3.org/2000/svg" xmlns:xlink="http://www.w3.org/1999/xlink" 
     viewBox="0 0 612.001 612.001" xml:space="preserve">
<g>
    <path d="M515.77,431.781c0,0-8.917-201.817-135.072-260.518c9.256-14.101,18.176-28.427,26.626-43.018
        c11.122-19.209,21.523-39.136,28.899-60.119c6.369-18.114,5.823-47.837-11.421-60.579c-14.977-11.067-36.904-7.818-53.604-3.712
        c-13.713,3.372-26.816,8.892-39.847,14.25c-9.108,3.749-18.35,7.339-27.793,10.154c-10.094,3.008-18.161,5.486-31.057-1.625
        c-3.358-1.854-6.701-3.715-10.149-5.399c-10.489-5.129-20.946-8.324-32.719-8.279c-21.403,0.073-43.208,11.615-53.512,30.642
        c-9.077,16.763-7.027,32.818,0.289,49.305c10.566,23.817,29.965,44.772,46.745,64.328c3.586,4.178,7.213,8.324,10.879,12.44
        C104.478,226.17,95.389,431.78,95.389,431.78S78.575,612.001,305.581,612.001C544.968,612.001,515.77,431.781,515.77,431.781z"/>
</g>
</svg>